<?xml version="1.0" encoding="UTF-8"?>
<svg id="Capa_2" data-name="Capa 2" xmlns="http://www.w3.org/2000/svg" viewBox="0 0 963.08 299.99">
  <defs>
    <style>
      .cls-1 {
        fill: #44cdff;
      }

      .cls-2 {
        fill: #80a5bc;
      }

      .cls-3 {
        fill: #19befb;
      }

      .cls-4 {
        fill: #70e0ff;
      }

      .cls-5 {
        fill: #435a6a;
      }

      .cls-6 {
        fill: #93e2fe;
      }

      .cls-7 {
        fill: #94def2;
      }

      .cls-8 {
        fill: #429d66;
      }

      .cls-9 {
        fill: #47a064;
      }

      .cls-10 {
        fill: #aedab3;
      }

      .cls-11 {
        fill: #fff;
      }

      .cls-12 {
        fill: #8dafc8;
      }

      .cls-13 {
        fill: #3ec5fd;
      }

      .cls-14 {
        fill: #acd7b1;
      }

      .cls-15 {
        fill: #2d383d;
      }

      .cls-16, .cls-17 {
        fill: #3eb8eb;
      }

      .cls-18 {
        fill: #3fcafe;
      }

      .cls-19 {
        fill: #cce0eb;
      }

      .cls-20 {
        fill: #73e2ff;
      }

      .cls-21 {
        fill: #12b9fa;
      }

      .cls-17 {
        font-family: Arial-BoldMT, Arial;
        font-size: 34.51px;
        font-weight: 700;
      }

      .cls-22 {
        fill: #657c90;
      }

      .cls-23 {
        fill: #058fd2;
      }

      .cls-24 {
        fill: #deebf1;
      }

      .cls-25 {
        fill: #41c9fc;
      }

      .cls-26 {
        fill: #1dc0ff;
      }

      .cls-27 {
        fill: #3cc7fe;
      }

      .cls-28 {
        fill: #bdefff;
      }

      .cls-29 {
        fill: #364249;
      }

      .cls-30 {
        fill: #e3eff3;
      }

      .cls-31 {
        fill: #5ab273;
      }

      .cls-32 {
        fill: #28a3e1;
      }

      .cls-33 {
        fill: #637d90;
      }

      .cls-34 {
        fill: #409d69;
      }

      .cls-35 {
        fill: #d8e6f0;
      }

      .cls-36 {
        fill: #87c76a;
      }
    </style>
  </defs>
  <g id="Capa_16" data-name="Capa 16">
    <g>
      <g>
        <path class="cls-16" d="M814.27,126.89h46.44v41.11s-2.81,25.28-23.36,25.28h-52.98s-31.15-2.55-31.15-27.32v-67.91s5.62-24.77,29.11-24.77h81.19l-6.64,27.06h-59.74s-12.89-1.28-12.89,12.89v46.34s.51,10.15,10.15,10.15h32.11s6.13,2.11,6.13-15v-9.19h-18.38l.03-18.64Z"/>
        <path class="cls-11" d="M537.88,100.34h58.48l6.64-27.06h-98.65v118.44h33.19v-45.31h53.28v-26.38h-52.68s-.26-19.59-.26-19.69Z"/>
        <polygon class="cls-11" points="483.35 73.27 483.35 191.71 452.97 191.71 452.97 122 414.67 172.04 376.37 122 376.37 191.71 345.99 191.71 345.99 73.27 378.41 73.27 414.67 128.56 450.92 73.27 483.35 73.27"/>
        <path class="cls-11" d="M698.36,71.75h-48.75c-18.69,0-33.84,15.93-33.84,35.58v50.33c0,19.65,15.14,35.57,33.84,35.57h48.75c18.69,0,33.85-15.92,33.85-35.57v-50.33c0-19.65-15.15-35.58-33.85-35.58ZM700.04,149.92c0,8.88-6.85,16.08-15.3,16.08h-21.5c-8.45,0-15.31-7.2-15.31-16.08v-34.85c0-8.89,6.86-16.09,15.31-16.09h21.5c8.45,0,15.3,7.2,15.3,16.09v34.85Z"/>
      </g>
      <text class="cls-17" transform="translate(343.36 233.41)"><tspan x="0" y="0">Modular Framework Offline Generator</tspan></text>
      <polygon class="cls-20" points="97.86 125.86 147.49 97.21 147.49 110.92 109.74 132.72 97.86 125.86"/>
      <polygon class="cls-28" points="151.49 110.92 151.49 97.21 201.11 125.86 189.23 132.72 151.49 110.92"/>
      <polygon class="cls-1" points="95.86 129.32 107.74 136.18 107.74 179.76 95.86 186.62 95.86 129.32"/>
      <polygon class="cls-27" points="97.86 190.09 109.74 183.23 147.49 205.02 147.49 218.73 97.86 190.09"/>
      <polygon class="cls-13" points="151.49 205.02 189.23 183.23 201.11 190.09 151.49 218.73 151.49 205.02"/>
      <polygon class="cls-25" points="191.23 179.76 191.23 136.18 203.11 129.32 203.11 186.62 191.23 179.76"/>
      <polygon class="cls-4" points="113.74 135.03 149.49 114.39 185.23 135.03 149.49 155.66 113.74 135.03"/>
      <polygon class="cls-16" points="111.74 179.76 111.74 138.49 147.49 159.12 147.49 200.4 111.74 179.76"/>
      <polygon class="cls-16" points="151.49 159.12 187.23 138.49 187.23 179.76 151.49 200.4 151.49 159.12"/>
      <polygon class="cls-7" points="223.49 157.06 228.91 160.19 228.91 162.98 223.49 166.11 223.49 157.06"/>
      <polygon class="cls-6" points="232.91 162.98 232.91 160.19 246.58 152.31 297.27 181.57 281.18 190.86 232.91 162.98"/>
      <polygon class="cls-3" points="162.53 235.89 178.62 226.6 178.62 250.07 162.53 259.36 162.53 235.89"/>
      <polygon class="cls-21" points="164.53 262.83 180.62 253.54 228.91 281.41 228.91 299.99 164.53 262.83"/>
      <polygon class="cls-32" points="232.91 281.41 281.18 253.54 297.27 262.83 232.91 299.99 232.91 281.41"/>
      <polygon class="cls-32" points="283.18 250.07 283.18 194.33 299.27 185.04 299.27 259.36 283.18 250.07"/>
      <polygon class="cls-18" points="210.59 208.15 223.49 200.7 223.49 170.73 230.91 166.45 277.18 193.17 230.91 219.88 210.59 208.15"/>
      <polygon class="cls-26" points="182.62 250.07 182.62 224.29 206.59 210.46 228.91 223.34 228.91 276.79 182.62 250.07"/>
      <polygon class="cls-23" points="232.91 223.35 279.18 196.63 279.18 250.07 232.91 276.79 232.91 223.35"/>
      <polygon class="cls-30" points="2.01 181.57 52.71 152.31 66.39 160.2 66.39 162.98 18.1 190.86 2.01 181.57"/>
      <polygon class="cls-30" points="70.39 162.98 70.39 160.18 75.48 157.25 75.48 165.92 70.39 162.98"/>
      <polygon class="cls-2" points="0 185.04 16.1 194.33 16.1 250.07 0 259.36 0 185.04"/>
      <polygon class="cls-2" points="2.01 262.83 18.1 253.54 66.39 281.41 66.39 299.99 2.01 262.83"/>
      <polygon class="cls-35" points="70.39 281.41 118.66 253.54 134.75 262.83 70.39 299.99 70.39 281.41"/>
      <polygon class="cls-35" points="120.66 250.07 120.66 226.78 136.75 236.06 136.75 259.36 120.66 250.07"/>
      <polygon class="cls-19" points="22.1 193.17 68.39 166.45 75.48 170.54 75.48 200.7 88.55 208.25 68.39 219.88 22.1 193.17"/>
      <polygon class="cls-12" points="20.1 250.07 20.1 196.63 66.39 223.35 66.39 276.8 20.1 250.07"/>
      <polygon class="cls-24" points="70.39 223.34 92.55 210.56 116.66 224.47 116.66 250.07 70.39 276.79 70.39 223.34"/>
      <polygon class="cls-14" points="164.53 37.16 228.91 0 228.91 18.57 180.62 46.45 164.53 37.16"/>
      <polygon class="cls-10" points="232.91 18.57 232.91 0 297.27 37.16 281.18 46.45 232.91 18.57"/>
      <polygon class="cls-34" points="162.53 80.05 162.53 40.62 178.62 49.91 178.62 89.34 162.53 80.05"/>
      <polygon class="cls-31" points="223.49 152.44 223.49 133.87 228.91 137 228.91 155.57 223.49 152.44"/>
      <polygon class="cls-31" points="232.91 137 281.18 109.13 297.27 118.42 245.58 148.27 232.91 155.58 232.91 137"/>
      <polygon class="cls-31" points="283.18 105.66 283.18 49.91 299.27 40.62 299.27 114.95 283.18 105.66"/>
      <polygon class="cls-36" points="184.62 48.76 230.91 22.03 277.18 48.76 230.91 75.47 184.62 48.76"/>
      <polygon class="cls-8" points="223.49 129.25 223.49 115.24 182.62 91.65 182.62 52.22 228.91 78.93 228.91 132.38 223.49 129.25"/>
      <polygon class="cls-9" points="232.91 78.93 279.18 52.22 279.18 105.66 232.91 132.38 232.91 78.93"/>
      <polygon class="cls-22" points="2 37.16 66.38 0 66.38 18.57 18.09 46.45 2 37.16"/>
      <polygon class="cls-33" points="70.38 18.57 70.38 0 134.74 37.16 118.65 46.45 70.38 18.57"/>
      <polygon class="cls-15" points="0 40.62 16.09 49.91 16.09 105.66 0 114.95 0 40.62"/>
      <polygon class="cls-15" points="2 118.42 18.09 109.13 66.38 137 66.38 155.58 2 118.42"/>
      <polygon class="cls-15" points="70.39 137 75.48 134.05 75.48 152.63 70.39 155.57 70.39 137"/>
      <polygon class="cls-33" points="120.65 49.91 136.74 40.62 136.74 79.88 120.65 89.17 120.65 49.91"/>
      <polygon class="cls-5" points="22.09 48.76 68.38 22.03 114.65 48.76 68.38 75.47 22.09 48.76"/>
      <polygon class="cls-29" points="20.09 105.66 20.09 52.22 66.38 78.93 66.38 132.38 20.09 105.66"/>
      <polygon class="cls-5" points="70.38 78.93 116.65 52.22 116.65 91.48 75.48 115.24 75.48 129.43 70.38 132.38 70.38 78.93"/>
    </g>
  </g>
</svg>
