<?xml version="1.0" encoding="UTF-8"?>
<svg id="Capa_2" data-name="Capa 2" xmlns="http://www.w3.org/2000/svg" viewBox="0 0 963.08 299.99">
  <defs>
    <style>
      .cls-1 {
        fill: #44cdff;
      }

      .cls-2 {
        fill: #80a5bc;
      }

      .cls-3 {
        fill: #19befb;
      }

      .cls-4 {
        fill: #70e0ff;
      }

      .cls-5 {
        fill: #435a6a;
      }

      .cls-6 {
        fill: #93e2fe;
      }

      .cls-7 {
        fill: #94def2;
      }

      .cls-8 {
        fill: #429d66;
      }

      .cls-9 {
        fill: #47a064;
      }

      .cls-10 {
        fill: #aedab3;
      }

      .cls-11 {
        fill: #8dafc8;
      }

      .cls-12 {
        fill: #3ec5fd;
      }

      .cls-13 {
        fill: #acd7b1;
      }

      .cls-14 {
        fill: #2d383d;
      }

      .cls-15, .cls-16 {
        fill: #3eb8eb;
      }

      .cls-17 {
        fill: #3fcafe;
      }

      .cls-18 {
        fill: #cce0eb;
      }

      .cls-19 {
        fill: #73e2ff;
      }

      .cls-20 {
        fill: #12b9fa;
      }

      .cls-16 {
        font-family: Arial-BoldMT, Arial;
        font-size: 34.51px;
        font-weight: 700;
      }

      .cls-21 {
        fill: #657c90;
      }

      .cls-22 {
        fill: #058fd2;
      }

      .cls-23 {
        fill: #deebf1;
      }

      .cls-24 {
        fill: #41c9fc;
      }

      .cls-25 {
        fill: #1dc0ff;
      }

      .cls-26 {
        fill: #3cc7fe;
      }

      .cls-27 {
        fill: #bdefff;
      }

      .cls-28 {
        fill: #364249;
      }

      .cls-29 {
        fill: #e3eff3;
      }

      .cls-30 {
        fill: #5ab273;
      }

      .cls-31 {
        fill: #28a3e1;
      }

      .cls-32 {
        fill: #637d90;
      }

      .cls-33 {
        fill: #409d69;
      }

      .cls-34 {
        fill: #d8e6f0;
      }

      .cls-35 {
        fill: #87c76a;
      }
    </style>
  </defs>
  <g id="Capa_18" data-name="Capa 18">
    <g>
      <g>
        <path class="cls-15" d="M814.27,126.89h46.44v41.11s-2.81,25.28-23.36,25.28h-52.98s-31.15-2.55-31.15-27.32v-67.91s5.62-24.77,29.11-24.77h81.19l-6.64,27.06h-59.74s-12.89-1.28-12.89,12.89v46.34s.51,10.15,10.15,10.15h32.11s6.13,2.11,6.13-15v-9.19h-18.38l.03-18.64Z"/>
        <path class="cls-14" d="M537.88,100.34h58.48l6.64-27.06h-98.65v118.44h33.19v-45.31h53.28v-26.38h-52.68s-.26-19.59-.26-19.69Z"/>
        <polygon class="cls-14" points="483.35 73.27 483.35 191.71 452.97 191.71 452.97 122 414.67 172.04 376.37 122 376.37 191.71 345.99 191.71 345.99 73.27 378.41 73.27 414.67 128.56 450.92 73.27 483.35 73.27"/>
        <path class="cls-14" d="M698.36,71.75h-48.75c-18.69,0-33.84,15.93-33.84,35.58v50.33c0,19.65,15.14,35.57,33.84,35.57h48.75c18.69,0,33.85-15.92,33.85-35.57v-50.33c0-19.65-15.15-35.58-33.85-35.58ZM700.04,149.92c0,8.88-6.85,16.08-15.3,16.08h-21.5c-8.45,0-15.31-7.2-15.31-16.08v-34.85c0-8.89,6.86-16.09,15.31-16.09h21.5c8.45,0,15.3,7.2,15.3,16.09v34.85Z"/>
      </g>
      <text class="cls-16" transform="translate(343.36 233.41)"><tspan x="0" y="0">Modular Framework Offline Generator</tspan></text>
      <g>
        <polygon class="cls-19" points="98.36 125.86 147.24 97.64 147.24 110.78 109.74 132.43 98.36 125.86"/>
        <path d="M146.99,98.08v12.56l-37.25,21.51-10.88-6.28,48.13-27.78M147.49,97.21l-49.63,28.65,11.88,6.86,37.75-21.8v-13.71h0Z"/>
      </g>
      <g>
        <polygon class="cls-27" points="151.74 110.78 151.74 97.64 200.61 125.86 189.23 132.43 151.74 110.78"/>
        <path d="M151.99,98.08l48.12,27.78-10.88,6.28-37.24-21.51v-12.56M151.49,97.21v13.71l37.74,21.8,11.88-6.86-49.62-28.65h0Z"/>
      </g>
      <g>
        <polygon class="cls-1" points="96.11 129.76 107.49 136.33 107.49 179.62 96.11 186.19 96.11 129.76"/>
        <path d="M96.36,130.19l10.88,6.28v43l-10.88,6.28v-55.57M95.86,129.32v57.3l11.88-6.86v-43.58l-11.88-6.86h0Z"/>
      </g>
      <g>
        <polygon class="cls-26" points="98.36 190.09 109.74 183.52 147.24 205.17 147.24 218.3 98.36 190.09"/>
        <path d="M109.74,183.8l37.25,21.51v12.56l-48.13-27.78,10.88-6.28M109.74,183.23l-11.88,6.86,49.63,28.65v-13.71l-37.75-21.79h0Z"/>
      </g>
      <g>
        <polygon class="cls-12" points="151.74 205.17 189.23 183.52 200.61 190.09 151.74 218.3 151.74 205.17"/>
        <path d="M189.23,183.8l10.88,6.28-48.12,27.78v-12.56l37.24-21.51M189.23,183.23l-37.74,21.79v13.71l49.62-28.65-11.88-6.86h0Z"/>
      </g>
      <g>
        <polygon class="cls-24" points="191.48 179.62 191.48 136.33 202.86 129.76 202.86 186.19 191.48 179.62"/>
        <path d="M202.61,130.19v55.57l-10.88-6.28v-43l10.88-6.28M203.11,129.32l-11.88,6.86v43.58l11.88,6.86v-57.3h0Z"/>
      </g>
      <g>
        <polygon class="cls-4" points="114.24 135.03 149.49 114.68 184.73 135.03 149.49 155.37 114.24 135.03"/>
        <path d="M149.49,114.97l34.74,20.06-34.74,20.05-34.75-20.05,34.75-20.06M149.49,114.39l-35.75,20.64,35.75,20.63,35.74-20.63-35.74-20.64h0Z"/>
      </g>
      <g>
        <polygon class="cls-15" points="111.99 179.62 111.99 138.92 147.24 159.27 147.24 199.97 111.99 179.62"/>
        <path d="M112.24,139.36l34.75,20.05v40.13l-34.75-20.06v-40.12M111.74,138.49v41.27l35.75,20.64v-41.28l-35.75-20.63h0Z"/>
      </g>
      <g>
        <polygon class="cls-15" points="151.74 159.27 186.98 138.92 186.98 179.62 151.74 199.97 151.74 159.27"/>
        <path d="M186.73,139.36v40.12l-34.74,20.06v-40.13l34.74-20.05M187.23,138.49l-35.74,20.63v41.28l35.74-20.64v-41.27h0Z"/>
      </g>
      <g>
        <polygon class="cls-7" points="223.74 157.5 228.66 160.34 228.66 162.84 223.74 165.68 223.74 157.5"/>
        <path d="M223.99,157.93l4.42,2.55v2.21l-4.42,2.55v-7.32M223.49,157.06v9.05l5.42-3.13v-2.79l-5.42-3.13h0Z"/>
      </g>
      <g>
        <polygon class="cls-6" points="233.16 162.84 233.16 160.34 246.58 152.6 296.77 181.57 281.18 190.57 233.16 162.84"/>
        <path d="M246.58,152.88l49.69,28.68-15.09,8.71-47.77-27.59v-2.21l13.17-7.6M246.58,152.31l-13.67,7.89v2.79l48.27,27.88,16.09-9.29-50.69-29.26h0Z"/>
      </g>
      <g>
        <polygon class="cls-3" points="162.78 236.04 178.37 227.04 178.37 249.93 162.78 258.93 162.78 236.04"/>
        <path d="M178.12,227.47v22.32l-15.09,8.71v-22.32l15.09-8.71M178.62,226.6l-16.09,9.29v23.47l16.09-9.29v-23.47h0Z"/>
      </g>
      <g>
        <polygon class="cls-20" points="165.03 262.83 180.62 253.82 228.66 281.56 228.66 299.55 165.03 262.83"/>
        <path d="M180.62,254.11l47.79,27.59v17.42l-62.88-36.29,15.09-8.71M180.62,253.54l-16.09,9.29,64.38,37.16v-18.57l-48.29-27.88h0Z"/>
      </g>
      <g>
        <polygon class="cls-31" points="233.16 281.56 281.18 253.82 296.77 262.83 233.16 299.55 233.16 281.56"/>
        <path d="M281.18,254.11l15.09,8.71-62.86,36.29v-17.42l47.77-27.59M281.18,253.54l-48.27,27.88v18.57l64.36-37.16-16.09-9.29h0Z"/>
      </g>
      <g>
        <polygon class="cls-31" points="283.43 249.93 283.43 194.47 299.02 185.47 299.02 258.93 283.43 249.93"/>
        <path d="M298.77,185.9v72.6l-15.09-8.71v-55.17l15.09-8.71M299.27,185.04l-16.09,9.29v55.75l16.09,9.29v-74.33h0Z"/>
      </g>
      <g>
        <path class="cls-17" d="M211.09,208.15l12.52-7.23c.08-.04.12-.13.12-.22v-29.83l7.17-4.14,45.77,26.43-45.77,26.42-19.82-11.44Z"/>
        <path d="M230.91,167.03l45.27,26.14-45.27,26.13-19.32-11.15,12.15-7.01c.15-.09.25-.25.25-.43v-29.68l6.92-4M230.91,166.45l-7.42,4.28v29.97l-12.9,7.45,20.32,11.73,46.27-26.71-46.27-26.72h0Z"/>
      </g>
      <g>
        <polygon class="cls-25" points="182.87 249.93 182.87 224.44 206.59 210.75 228.66 223.49 228.66 276.36 182.87 249.93"/>
        <path d="M206.59,211.04l21.82,12.6v52.3l-45.29-26.14v-25.2l23.47-13.55M206.59,210.46l-23.97,13.84v25.78l46.29,26.72v-53.45l-22.32-12.88h0Z"/>
      </g>
      <g>
        <polygon class="cls-22" points="233.16 223.49 278.93 197.07 278.93 249.93 233.16 276.36 233.16 223.49"/>
        <path d="M278.68,197.5v52.28l-45.27,26.15v-52.29l45.27-26.13M279.18,196.63l-46.27,26.71v53.45l46.27-26.72v-53.44h0Z"/>
      </g>
      <g>
        <polygon class="cls-29" points="2.51 181.57 52.71 152.6 66.14 160.34 66.14 162.84 18.1 190.57 2.51 181.57"/>
        <path d="M52.71,152.88l13.18,7.6v2.21l-47.79,27.59-15.09-8.71,49.7-28.68M52.71,152.31L2.01,181.57l16.09,9.29,48.29-27.88v-2.78l-13.68-7.89h0Z"/>
      </g>
      <g>
        <polygon class="cls-29" points="70.64 162.84 70.64 160.33 75.23 157.68 75.23 165.49 70.64 162.84"/>
        <path d="M74.98,158.11v6.94l-4.09-2.36v-2.22l4.09-2.36M75.48,157.25l-5.09,2.93v2.8l5.09,2.94v-8.67h0Z"/>
      </g>
      <g>
        <polygon class="cls-2" points=".26 185.47 15.85 194.47 15.85 249.93 .26 258.93 .26 185.47"/>
        <path d="M.51,185.9l15.09,8.71v55.17l-15.09,8.71v-72.6M0,185.04v74.33l16.09-9.29v-55.75L0,185.04H0Z"/>
      </g>
      <g>
        <polygon class="cls-2" points="2.51 262.83 18.1 253.82 66.14 281.56 66.14 299.55 2.51 262.83"/>
        <path d="M18.1,254.11l47.79,27.59v17.42L3.01,262.83l15.09-8.71M18.1,253.54l-16.09,9.29,64.38,37.16v-18.57l-48.29-27.88h0Z"/>
      </g>
      <g>
        <polygon class="cls-34" points="70.64 281.56 118.66 253.82 134.25 262.83 70.64 299.55 70.64 281.56"/>
        <path d="M118.66,254.11l15.09,8.71-62.86,36.29v-17.42l47.77-27.59M118.66,253.54l-48.27,27.88v18.57l64.36-37.16-16.09-9.29h0Z"/>
      </g>
      <g>
        <polygon class="cls-34" points="120.91 249.93 120.91 227.21 136.5 236.21 136.5 258.93 120.91 249.93"/>
        <path d="M121.16,227.65l15.09,8.71v22.15l-15.09-8.71v-22.14M120.66,226.78v23.29l16.09,9.29v-23.3l-16.09-9.28h0Z"/>
      </g>
      <g>
        <path class="cls-18" d="M22.6,193.17l45.79-26.43,6.84,3.95v30.01c0,.09.05.17.12.22l12.69,7.33-19.66,11.34-45.79-26.42Z"/>
        <path d="M68.39,167.03l6.59,3.81v29.87c0,.18.1.34.25.43l12.32,7.11-19.16,11.05-45.29-26.13,45.29-26.14M68.39,166.45l-46.29,26.72,46.29,26.71,20.16-11.63-13.07-7.54v-30.16l-7.09-4.1h0Z"/>
      </g>
      <g>
        <polygon class="cls-11" points="20.35 249.93 20.35 197.07 66.14 223.49 66.14 276.36 20.35 249.93"/>
        <path d="M20.6,197.5l45.29,26.14v52.29l-45.29-26.15v-52.28M20.1,196.63v53.44l46.29,26.72v-53.45l-46.29-26.71h0Z"/>
      </g>
      <g>
        <polygon class="cls-23" points="70.64 223.49 92.55 210.85 116.41 224.62 116.41 249.93 70.64 276.36 70.64 223.49"/>
        <path d="M92.55,211.13l23.61,13.63v25.02l-45.27,26.14v-52.29l21.66-12.5M92.55,210.56l-22.16,12.79v53.45l46.27-26.72v-25.6l-24.11-13.92h0Z"/>
      </g>
      <g>
        <polygon class="cls-13" points="165.03 37.16 228.66 .43 228.66 18.43 180.62 46.16 165.03 37.16"/>
        <path d="M228.41.87v17.42l-47.79,27.59-15.09-8.71L228.41.87M228.91,0l-64.38,37.16,16.09,9.29,48.29-27.88V0h0Z"/>
      </g>
      <g>
        <polygon class="cls-10" points="233.16 18.43 233.16 .43 296.77 37.16 281.18 46.16 233.16 18.43"/>
        <path d="M233.41.87l62.86,36.29-15.09,8.71-47.77-27.59V.87M232.91,0v18.57l48.27,27.88,16.09-9.29L232.91,0h0Z"/>
      </g>
      <g>
        <polygon class="cls-33" points="162.78 79.91 162.78 41.06 178.37 50.06 178.37 88.91 162.78 79.91"/>
        <path d="M163.03,41.49l15.09,8.71v38.28l-15.09-8.71v-38.28M162.53,40.62v39.43l16.09,9.29v-39.43l-16.09-9.29h0Z"/>
      </g>
      <g>
        <polygon class="cls-30" points="223.74 152.3 223.74 134.31 228.66 137.15 228.66 155.14 223.74 152.3"/>
        <path d="M223.99,134.74l4.42,2.55v17.42l-4.42-2.55v-17.42M223.49,133.87v18.57l5.42,3.13v-18.57l-5.42-3.13h0Z"/>
      </g>
      <g>
        <polygon class="cls-30" points="233.16 137.15 281.18 109.42 296.77 118.42 245.45 148.05 233.16 155.14 233.16 137.15"/>
        <path d="M281.18,109.71l15.09,8.71-50.94,29.41-11.92,6.88v-17.42l47.77-27.59M281.18,109.13l-48.27,27.88v18.57l12.67-7.31,51.69-29.85-16.09-9.29h0Z"/>
      </g>
      <g>
        <polygon class="cls-30" points="283.43 105.52 283.43 50.06 299.02 41.06 299.02 114.52 283.43 105.52"/>
        <path d="M298.77,41.49v72.6l-15.09-8.71v-55.17l15.09-8.71M299.27,40.62l-16.09,9.29v55.75l16.09,9.29V40.62h0Z"/>
      </g>
      <g>
        <polygon class="cls-35" points="185.12 48.76 230.91 22.32 276.68 48.76 230.91 75.18 185.12 48.76"/>
        <path d="M230.91,22.61l45.27,26.15-45.27,26.14-45.29-26.14,45.29-26.15M230.91,22.03l-46.29,26.72,46.29,26.71,46.27-26.71-46.27-26.72h0Z"/>
      </g>
      <g>
        <path class="cls-8" d="M223.74,129.11v-13.87c0-.09-.05-.17-.12-.22l-40.75-23.52v-38.85l45.79,26.42v52.87l-4.92-2.84Z"/>
        <path d="M183.12,53.09l45.29,26.13v52.3l-4.42-2.55v-13.72c0-.18-.1-.34-.25-.43l-40.62-23.45v-38.28M182.62,52.22v39.43l40.87,23.59v14.01l5.42,3.13v-53.45l-46.29-26.71h0Z"/>
      </g>
      <g>
        <polygon class="cls-9" points="233.16 79.08 278.93 52.66 278.93 105.52 233.16 131.95 233.16 79.08"/>
        <path d="M278.68,53.09v52.29l-45.27,26.14v-52.3l45.27-26.13M279.18,52.22l-46.27,26.71v53.45l46.27-26.72v-53.44h0Z"/>
      </g>
      <g>
        <polygon class="cls-21" points="2.5 37.16 66.13 .43 66.13 18.43 18.09 46.16 2.5 37.16"/>
        <path d="M65.88.87v17.42l-47.79,27.59-15.09-8.71L65.88.87M66.38,0L2,37.16l16.09,9.29,48.29-27.88V0h0Z"/>
      </g>
      <g>
        <polygon class="cls-32" points="70.63 18.43 70.63 .43 134.24 37.16 118.65 46.16 70.63 18.43"/>
        <path d="M70.88.87l62.86,36.29-15.09,8.71-47.77-27.59V.87M70.38,0v18.57l48.27,27.88,16.09-9.29L70.38,0h0Z"/>
      </g>
      <g>
        <polygon class="cls-14" points=".25 41.06 15.84 50.06 15.84 105.52 .25 114.52 .25 41.06"/>
        <path d="M.5,41.49l15.09,8.71v55.17L.5,114.09V41.49M0,40.62v74.33l16.09-9.29v-55.75L0,40.62h0Z"/>
      </g>
      <g>
        <polygon class="cls-14" points="2.5 118.42 18.09 109.42 66.13 137.15 66.13 155.14 2.5 118.42"/>
        <path d="M18.09,109.71l47.79,27.59v17.42L3,118.42l15.09-8.71M18.09,109.13l-16.09,9.29,64.38,37.16v-18.57l-48.29-27.88h0Z"/>
      </g>
      <g>
        <polygon class="cls-14" points="70.64 137.14 75.23 134.49 75.23 152.49 70.64 155.13 70.64 137.14"/>
        <path d="M74.98,134.92v17.42l-4.09,2.36v-17.42l4.09-2.36M75.48,134.05l-5.09,2.94v18.57l5.09-2.93v-18.58h0Z"/>
      </g>
      <g>
        <polygon class="cls-32" points="120.9 50.06 136.49 41.06 136.49 79.74 120.9 88.74 120.9 50.06"/>
        <path d="M136.24,41.49v38.11l-15.09,8.71v-38.11l15.09-8.71M136.74,40.62l-16.09,9.29v39.26l16.09-9.29v-39.26h0Z"/>
      </g>
      <g>
        <polygon class="cls-5" points="22.59 48.76 68.38 22.32 114.15 48.76 68.38 75.18 22.59 48.76"/>
        <path d="M68.38,22.61l45.27,26.15-45.27,26.14-45.29-26.14,45.29-26.15M68.38,22.03l-46.29,26.72,46.29,26.71,46.27-26.71-46.27-26.72h0Z"/>
      </g>
      <g>
        <polygon class="cls-28" points="20.34 105.52 20.34 52.65 66.13 79.08 66.13 131.95 20.34 105.52"/>
        <path d="M20.59,53.09l45.29,26.13v52.3l-45.29-26.14v-52.29M20.09,52.22v53.44l46.29,26.72v-53.45l-46.29-26.71h0Z"/>
      </g>
      <g>
        <path class="cls-5" d="M70.63,79.08l45.77-26.42v38.68l-41.04,23.69c-.08.04-.12.13-.12.22v14.05l-4.6,2.66v-52.87Z"/>
        <path d="M116.15,53.09v38.11l-40.92,23.62c-.15.09-.25.25-.25.43v13.9l-4.1,2.37v-52.29l45.27-26.13M116.65,52.22l-46.27,26.71v53.45l5.1-2.95v-14.19l41.17-23.76v-39.26h0Z"/>
      </g>
    </g>
  </g>
</svg>
